<?xml version="1.0" standalone="no"?>
<!DOCTYPE svg PUBLIC "-//W3C//DTD SVG 20010904//EN"
 "http://www.w3.org/TR/2001/REC-SVG-20010904/DTD/svg10.dtd">
<svg version="1.0" xmlns="http://www.w3.org/2000/svg"
 width="88.000000pt" height="88.000000pt" viewBox="0 0 88.000000 88.000000"
 preserveAspectRatio="xMidYMid meet">

<g transform="translate(0.000000,88.000000) scale(0.100000,-0.100000)"
fill="#000000" stroke="none">
<path d="M62 748 c2 -18 11 -24 37 -28 33 -5 37 -10 99 -143 l65 -137 -26 -49
c-30 -55 -34 -88 -13 -117 13 -18 30 -19 240 -22 l226 -3 0 30 0 31 -205 0
c-179 0 -205 2 -205 16 0 19 19 56 34 66 6 4 74 8 152 8 121 0 143 2 156 18
30 32 138 237 138 260 l0 22 -275 0 -275 0 -17 35 c-16 34 -18 35 -76 35 -55
0 -58 -1 -55 -22z"/>
<path d="M226 185 c-22 -22 -20 -68 3 -89 29 -26 82 -18 101 17 13 24 13 30 0
55 -19 33 -78 43 -104 17z"/>
<path d="M576 178 c-32 -45 -6 -98 48 -98 39 0 66 26 66 62 0 55 -83 81 -114
36z"/>
</g>
</svg>
